<svg width="400" height="140" viewBox="0 0 400 140" fill="none" xmlns="http://www.w3.org/2000/svg">
<path d="M0 69.9035C0 108.51 31.2968 139.807 69.9034 139.807H330.097C368.703 139.807 400 108.51 400 69.9035C400 31.2969 368.703 3.33613e-05 330.097 3.33613e-05H69.9034C31.2969 3.33613e-05 0 31.2969 0 69.9035Z" fill="#353E48"/>
<path d="M68.8462 34.0599L65.6777 36.2531V56.91L68.8462 59.1031V48.2371H76.153V64.2195L79.3215 66.4099V26.7504L76.153 28.9436V45.0714H68.8462V34.0599Z" fill="white"/>
<path d="M95.2038 34.0601L97.7364 33.0362L89.139 27.117V22.6095L86.9944 21.1222V25.6297L79.7333 20.6373H79.7091L61.7061 33.0362L64.2413 34.0601L79.7091 23.4123L95.2038 34.0601Z" fill="#E74C3C"/>
<path d="M93.8166 35.4233V34.2783L79.7094 24.5816L65.6777 34.2298V35.3991L79.7094 25.7267L93.8166 35.4233Z" fill="white"/>
<path d="M90.6479 43.3175L89.1687 45.023H83.3383V32.597L90.6479 37.5922V43.3175ZM90.6479 55.6195L83.3383 60.6146V48.1914H89.1687L90.6479 49.8969V55.6195ZM93.8163 36.2531L80.1753 26.7532V66.4612L93.8163 56.9612V49.3607L91.4292 46.6072L93.8163 43.8536V36.2531Z" fill="white"/>
<mask id="mask0_1_44" style="mask-type:luminance" maskUnits="userSpaceOnUse" x="47" y="13" width="306" height="62">
<path d="M47 13H352.493V74.0986H47V13Z" fill="white"/>
</mask>
<g mask="url(#mask0_1_44)">
<path d="M125.494 52.6611C126.792 52.6611 127.779 52.3127 128.453 51.6151C129.128 50.9175 129.465 49.9349 129.465 48.6664C129.465 47.3985 129.128 46.4095 128.453 45.6991C127.779 44.9887 126.792 44.6335 125.494 44.6335H115.663V52.6611H125.494ZM125.402 39.593C125.818 39.593 126.224 39.6122 126.62 39.65C127.299 38.8384 127.639 37.9128 127.639 36.8728C127.639 35.7949 127.302 34.9612 126.627 34.3716C125.952 33.7821 124.966 33.4868 123.667 33.4868H115.663V39.593H125.402ZM110.839 28.1801H123.546C125.098 28.1801 126.45 28.3864 127.601 28.7981C128.753 29.2103 129.709 29.7777 130.47 30.5004C131.231 31.2235 131.796 32.0828 132.166 33.0781C132.537 34.0734 132.722 35.1484 132.722 36.3019C132.722 38.1919 132.245 39.847 131.292 41.2668C132.387 42.0784 133.204 43.1312 133.741 44.4247C134.279 45.7183 134.548 47.1892 134.548 48.8374C134.548 50.2199 134.363 51.4687 133.992 52.5849C133.622 53.7011 133.059 54.6552 132.303 55.4476C131.547 56.2405 130.594 56.8492 129.442 57.2737C128.291 57.6987 126.934 57.9109 125.372 57.9109H110.839V28.1801Z" fill="white"/>
<path d="M142.076 42.9594C142.076 44.4942 142.296 45.8761 142.738 47.1063C143.179 48.3365 143.793 49.3858 144.579 50.2544C145.365 51.123 146.293 51.7921 147.364 52.2613C148.434 52.7305 149.598 52.9648 150.856 52.9648C152.114 52.9648 153.278 52.7305 154.349 52.2613C155.419 51.7921 156.345 51.123 157.126 50.2544C157.907 49.3858 158.521 48.3365 158.967 47.1063C159.414 45.8761 159.637 44.4942 159.637 42.9594C159.637 41.4251 159.414 40.049 158.967 38.8317C158.521 37.6143 157.907 36.5841 157.126 35.7405C156.345 34.8975 155.419 34.2539 154.349 33.8098C153.278 33.3661 152.114 33.1441 150.856 33.1441C149.598 33.1441 148.434 33.3661 147.364 33.8098C146.293 34.2539 145.365 34.8975 144.579 35.7405C143.793 36.5841 143.179 37.6143 142.738 38.8317C142.296 40.049 142.076 41.4251 142.076 42.9594ZM137.252 42.9594C137.252 40.7152 137.582 38.6607 138.241 36.7968C138.901 34.9328 139.826 33.3318 141.018 31.9935C142.21 30.6558 143.641 29.6192 145.31 28.8832C146.979 28.1478 148.827 27.7798 150.856 27.7798C152.875 27.7798 154.721 28.1478 156.395 28.8832C158.069 29.6192 159.502 30.6558 160.694 31.9935C161.886 33.3318 162.812 34.9328 163.472 36.7968C164.131 38.6607 164.461 40.7152 164.461 42.9594C164.461 45.2168 164.131 47.2871 163.472 49.1702C162.812 51.0533 161.886 52.673 160.694 54.0299C159.502 55.3868 158.069 56.4426 156.395 57.1972C154.721 57.9518 152.875 58.3291 150.856 58.3291C148.827 58.3291 146.979 57.9518 145.31 57.1972C143.641 56.4426 142.21 55.3868 141.018 54.0299C139.826 52.673 138.901 51.0533 138.241 49.1702C137.582 47.2871 137.252 45.2168 137.252 42.9594Z" fill="white"/>
<path d="M179.977 36.7966L182.26 33.3159H167.971V28.1801H191.238L177.923 49.0845L175.549 52.7751H190.493V57.9109H166.799L179.977 36.7966Z" fill="white"/>
<path d="M203.846 28.1801H224.1V33.4677H208.669V39.4029H222.335V44.3673H208.669V52.6419H224.419V57.9109H203.846V28.1801Z" fill="#E74C3C"/>
<path d="M229.01 28.1801H233.834L242.478 39.0221L251.121 28.1801H255.945V57.9109H251.121V36.5304L242.478 46.9352L233.834 36.5304V57.9109H229.01V28.1801Z" fill="#E74C3C"/>
<path d="M261.936 28.1801H266.76V52.6227H280.592V57.9109H261.936V28.1801Z" fill="#E74C3C"/>
<path d="M300.34 47.9433L295.197 34.438L290.19 47.9433H300.34ZM292.595 28.1801H297.707L309.212 57.9109H304.144L302.242 52.9082H288.349L286.507 57.9109H281.425L292.595 28.1801Z" fill="#E74C3C"/>
<path d="M312.129 28.1801H316.953V43.5684L329.507 28.1801H335.685L323.968 42.3702L335.685 57.9109H329.264L320.498 46.5741L316.953 50.8536V57.9109H312.129V28.1801Z" fill="#E74C3C"/>
</g>
<path d="M127.017 110.256C127.017 109.811 127.091 109.24 127.239 108.541C127.387 107.843 127.583 107.096 127.827 106.303C127.128 106.356 126.424 106.424 125.715 106.509C125.017 106.594 124.408 106.641 123.89 106.652C123.413 107.763 123.032 108.79 122.747 109.732C122.471 110.663 122.254 111.573 122.096 112.462C121.693 112.367 121.36 112.198 121.095 111.954C120.831 111.721 120.587 111.425 120.365 111.065C120.45 110.896 120.545 110.679 120.651 110.414C120.767 110.15 120.9 109.832 121.048 109.462C121.207 109.081 121.381 108.642 121.572 108.144C121.773 107.636 122 107.049 122.254 106.382C121.905 106.234 121.672 106.028 121.556 105.763C121.609 105.721 121.725 105.678 121.905 105.636C122.096 105.583 122.328 105.53 122.604 105.477L122.81 104.969C123.032 104.398 123.212 103.916 123.35 103.525C123.498 103.133 123.62 102.752 123.715 102.382C123.821 102.001 123.916 101.582 124.001 101.127C124.096 100.672 124.207 100.096 124.334 99.397C124.779 99.4817 125.181 99.6775 125.541 99.9844C125.911 100.291 126.228 100.662 126.493 101.096C126.398 101.223 126.281 101.413 126.144 101.667C126.006 101.921 125.853 102.228 125.683 102.588C125.525 102.937 125.35 103.334 125.16 103.779C124.969 104.212 124.763 104.673 124.54 105.16C125.197 105.075 125.858 104.996 126.525 104.922C127.202 104.847 127.8 104.795 128.319 104.763C128.509 104.212 128.705 103.678 128.906 103.159C129.118 102.63 129.324 102.149 129.525 101.715C129.726 101.281 129.917 100.9 130.097 100.572C130.287 100.244 130.457 100 130.605 99.8415C130.711 99.8521 130.848 99.8944 131.017 99.9685C131.197 100.032 131.377 100.111 131.557 100.207C131.737 100.302 131.901 100.408 132.049 100.524C132.197 100.63 132.298 100.731 132.351 100.826C132.16 101.006 131.97 101.239 131.779 101.524C131.589 101.81 131.398 102.138 131.208 102.509C131.028 102.879 130.848 103.281 130.668 103.715C130.488 104.149 130.319 104.599 130.16 105.064C130.372 105.255 130.478 105.493 130.478 105.779C130.478 105.98 130.435 106.165 130.351 106.334C130.255 106.313 130.16 106.303 130.065 106.303C129.97 106.292 129.869 106.282 129.763 106.271C129.583 106.842 129.419 107.409 129.271 107.97C129.123 108.53 128.996 109.065 128.89 109.573C128.795 110.081 128.716 110.547 128.652 110.97C128.599 111.393 128.573 111.748 128.573 112.034C128.573 112.139 128.573 112.224 128.573 112.288C128.583 112.351 128.594 112.404 128.604 112.446C128.372 112.436 128.202 112.393 128.096 112.319C127.991 112.256 127.911 112.182 127.858 112.097C127.805 112.023 127.758 111.944 127.715 111.859C127.673 111.785 127.604 111.727 127.509 111.684C127.435 111.653 127.366 111.579 127.303 111.462C127.239 111.346 127.186 111.213 127.144 111.065C127.102 110.917 127.07 110.769 127.049 110.621C127.027 110.473 127.017 110.351 127.017 110.256Z" fill="white"/>
<path d="M136.611 104.763C136.716 104.763 136.838 104.784 136.976 104.826C137.124 104.858 137.256 104.906 137.373 104.969C137.489 105.022 137.584 105.08 137.658 105.144C137.743 105.207 137.785 105.266 137.785 105.318C137.574 105.763 137.378 106.213 137.198 106.668C137.018 107.112 136.865 107.541 136.738 107.954C136.611 108.366 136.51 108.753 136.436 109.113C136.372 109.472 136.341 109.785 136.341 110.049C136.341 110.346 136.372 110.594 136.436 110.795C136.499 110.986 136.605 111.123 136.753 111.208C136.626 111.293 136.462 111.362 136.261 111.414C136.06 111.467 135.88 111.494 135.722 111.494C135.15 111.494 134.864 111.102 134.864 110.319C134.864 109.716 135.065 108.89 135.468 107.843C135.256 108.329 135.012 108.79 134.737 109.224C134.462 109.647 134.182 110.023 133.896 110.351C133.61 110.679 133.319 110.949 133.023 111.16C132.737 111.362 132.472 111.483 132.229 111.526C131.837 111.504 131.52 111.319 131.277 110.97C131.033 110.61 130.911 110.155 130.911 109.605C130.911 109.012 131.038 108.388 131.292 107.731C131.546 107.075 131.869 106.467 132.261 105.906C132.663 105.345 133.097 104.879 133.563 104.509C134.028 104.128 134.478 103.927 134.912 103.906C135.018 103.937 135.134 104.001 135.261 104.096C135.399 104.191 135.526 104.302 135.642 104.429C135.769 104.556 135.875 104.689 135.96 104.826C136.044 104.953 136.092 105.064 136.103 105.16C135.679 105.223 135.24 105.43 134.785 105.779C134.34 106.128 133.933 106.551 133.563 107.049C133.203 107.536 132.906 108.06 132.674 108.62C132.441 109.181 132.324 109.705 132.324 110.192C132.324 110.393 132.398 110.52 132.547 110.573C132.853 110.51 133.208 110.25 133.61 109.795C134.012 109.33 134.499 108.615 135.071 107.652C135.177 107.462 135.293 107.25 135.42 107.017C135.558 106.784 135.695 106.541 135.833 106.287C135.97 106.033 136.103 105.779 136.23 105.525C136.367 105.26 136.494 105.006 136.611 104.763Z" fill="white"/>
<path d="M144.498 108.716C144.254 109.488 144.011 110.192 143.767 110.827C143.524 111.462 143.265 112.044 142.99 112.573C142.714 113.113 142.418 113.605 142.101 114.05C141.783 114.505 141.434 114.933 141.053 115.336C140.566 115.844 140.063 116.23 139.545 116.495C139.026 116.77 138.507 116.907 137.989 116.907C137.724 116.907 137.46 116.876 137.195 116.812C136.941 116.759 136.703 116.68 136.481 116.574C136.248 116.479 136.047 116.362 135.877 116.225C135.698 116.098 135.571 115.96 135.496 115.812C135.496 115.685 135.571 115.574 135.719 115.479C135.846 115.595 135.952 115.685 136.036 115.748C136.121 115.812 136.206 115.865 136.29 115.907C136.364 115.949 136.449 115.976 136.544 115.987C136.629 115.997 136.729 116.002 136.846 116.002C137.449 116.002 138.036 115.822 138.608 115.463C139.19 115.113 139.735 114.611 140.243 113.954C140.762 113.309 141.233 112.52 141.656 111.589C142.079 110.668 142.439 109.636 142.736 108.493C142.598 108.705 142.429 108.964 142.228 109.271C142.026 109.578 141.804 109.885 141.561 110.192C141.317 110.488 141.063 110.758 140.799 111.002C140.545 111.245 140.296 111.409 140.053 111.494C139.883 111.483 139.703 111.446 139.513 111.383C139.333 111.33 139.158 111.25 138.989 111.145C138.83 111.039 138.687 110.912 138.56 110.764C138.433 110.615 138.349 110.446 138.306 110.256C138.306 109.949 138.317 109.705 138.338 109.525C138.359 109.335 138.396 109.128 138.449 108.906C138.544 108.504 138.682 108.049 138.862 107.541C139.052 107.033 139.269 106.536 139.513 106.049C139.767 105.551 140.042 105.091 140.338 104.668C140.645 104.234 140.963 103.895 141.291 103.652C141.376 103.652 141.481 103.662 141.608 103.683C141.735 103.694 141.868 103.72 142.005 103.763C142.143 103.805 142.275 103.858 142.402 103.921C142.529 103.974 142.64 104.048 142.736 104.144C142.619 104.25 142.365 104.604 141.973 105.207C141.582 105.811 141.148 106.678 140.672 107.811C140.619 107.927 140.555 108.097 140.481 108.319C140.407 108.541 140.333 108.774 140.259 109.017C140.195 109.261 140.137 109.499 140.084 109.732C140.031 109.965 140.005 110.15 140.005 110.287C140.005 110.372 140.016 110.436 140.037 110.478C140.068 110.52 140.095 110.552 140.116 110.573C140.307 110.541 140.561 110.388 140.878 110.113C141.196 109.827 141.555 109.388 141.958 108.795C142.212 108.414 142.444 108.038 142.656 107.668C142.868 107.287 143.074 106.906 143.275 106.525C143.487 106.144 143.704 105.752 143.926 105.35C144.148 104.948 144.387 104.535 144.641 104.112C144.778 104.112 144.926 104.128 145.085 104.16C145.244 104.191 145.397 104.234 145.545 104.287C145.694 104.329 145.821 104.382 145.926 104.445C146.043 104.498 146.127 104.556 146.18 104.62C145.852 105.318 145.545 106.001 145.26 106.668C144.974 107.335 144.72 108.017 144.498 108.716Z" fill="white"/>
<path d="M151.773 104.763C151.878 104.763 152 104.784 152.138 104.826C152.286 104.858 152.418 104.906 152.535 104.969C152.651 105.022 152.746 105.08 152.82 105.144C152.905 105.207 152.947 105.266 152.947 105.318C152.736 105.763 152.54 106.213 152.36 106.668C152.18 107.112 152.027 107.541 151.9 107.954C151.773 108.366 151.672 108.753 151.598 109.113C151.534 109.472 151.503 109.785 151.503 110.049C151.503 110.346 151.534 110.594 151.598 110.795C151.661 110.986 151.767 111.123 151.915 111.208C151.788 111.293 151.624 111.362 151.423 111.414C151.222 111.467 151.042 111.494 150.884 111.494C150.312 111.494 150.026 111.102 150.026 110.319C150.026 109.716 150.227 108.89 150.63 107.843C150.418 108.329 150.174 108.79 149.899 109.224C149.624 109.647 149.344 110.023 149.058 110.351C148.772 110.679 148.481 110.949 148.185 111.16C147.899 111.362 147.634 111.483 147.391 111.526C146.999 111.504 146.682 111.319 146.439 110.97C146.195 110.61 146.073 110.155 146.073 109.605C146.073 109.012 146.2 108.388 146.454 107.731C146.708 107.075 147.031 106.467 147.423 105.906C147.825 105.345 148.259 104.879 148.725 104.509C149.19 104.128 149.64 103.927 150.074 103.906C150.18 103.937 150.296 104.001 150.423 104.096C150.561 104.191 150.688 104.302 150.804 104.429C150.931 104.556 151.037 104.689 151.122 104.826C151.206 104.953 151.254 105.064 151.265 105.16C150.841 105.223 150.402 105.43 149.947 105.779C149.502 106.128 149.095 106.551 148.725 107.049C148.365 107.536 148.068 108.06 147.836 108.62C147.603 109.181 147.486 109.705 147.486 110.192C147.486 110.393 147.56 110.52 147.709 110.573C148.015 110.51 148.37 110.25 148.772 109.795C149.174 109.33 149.661 108.615 150.233 107.652C150.338 107.462 150.455 107.25 150.582 107.017C150.719 106.784 150.857 106.541 150.995 106.287C151.132 106.033 151.265 105.779 151.392 105.525C151.529 105.26 151.656 105.006 151.773 104.763Z" fill="white"/>
<path d="M153.737 110.16C153.737 109.695 153.848 109.044 154.07 108.208C154.292 107.361 154.605 106.377 155.007 105.255C155.663 103.466 156.277 101.979 156.848 100.794C157.43 99.5981 157.997 98.6668 158.547 98C158.674 98.0212 158.827 98.0741 159.007 98.1588C159.198 98.2434 159.383 98.3387 159.563 98.4445C159.743 98.5398 159.902 98.6403 160.039 98.7461C160.187 98.852 160.283 98.9366 160.325 99.0001C159.499 99.9738 158.774 101.022 158.15 102.143C157.526 103.265 156.954 104.551 156.435 106.001C155.991 107.25 155.652 108.377 155.419 109.382C155.187 110.377 155.07 111.208 155.07 111.875C155.07 112.055 155.07 112.166 155.07 112.208C155.07 112.251 155.076 112.293 155.086 112.335C154.938 112.314 154.811 112.277 154.705 112.224C154.599 112.171 154.53 112.108 154.499 112.034C154.478 111.981 154.419 111.901 154.324 111.795C154.229 111.7 154.144 111.626 154.07 111.573C153.975 111.51 153.895 111.346 153.832 111.081C153.768 110.806 153.737 110.499 153.737 110.16Z" fill="white"/>
<path d="M157.488 110.16C157.488 109.695 157.6 109.044 157.822 108.208C158.044 107.361 158.356 106.377 158.758 105.255C159.415 103.466 160.028 101.979 160.6 100.794C161.182 99.5981 161.748 98.6668 162.299 98C162.426 98.0212 162.579 98.0741 162.759 98.1588C162.949 98.2434 163.135 98.3387 163.315 98.4445C163.495 98.5398 163.653 98.6403 163.791 98.7461C163.939 98.852 164.034 98.9366 164.077 99.0001C163.251 99.9738 162.526 101.022 161.902 102.143C161.277 103.265 160.706 104.551 160.187 106.001C159.743 107.25 159.404 108.377 159.171 109.382C158.938 110.377 158.822 111.208 158.822 111.875C158.822 112.055 158.822 112.166 158.822 112.208C158.822 112.251 158.827 112.293 158.838 112.335C158.69 112.314 158.563 112.277 158.457 112.224C158.351 112.171 158.282 112.108 158.25 112.034C158.229 111.981 158.171 111.901 158.076 111.795C157.981 111.7 157.896 111.626 157.822 111.573C157.727 111.51 157.647 111.346 157.584 111.081C157.52 110.806 157.488 110.499 157.488 110.16Z" fill="white"/>
<path d="M166.877 104.604C166.835 105.26 166.719 105.826 166.528 106.303C166.338 106.768 166.062 107.181 165.703 107.541C165.353 107.89 164.925 108.208 164.417 108.493C163.909 108.779 163.316 109.054 162.639 109.319C162.639 109.382 162.633 109.451 162.623 109.525C162.623 109.589 162.623 109.658 162.623 109.732C162.623 109.869 162.633 110.012 162.655 110.16C162.676 110.309 162.713 110.446 162.766 110.573C162.819 110.7 162.893 110.806 162.988 110.891C163.083 110.965 163.205 111.002 163.353 111.002C163.639 111.002 163.919 110.938 164.194 110.811C164.47 110.684 164.729 110.531 164.972 110.351C165.226 110.16 165.459 109.959 165.671 109.748C165.893 109.525 166.089 109.324 166.258 109.144C166.364 109.24 166.454 109.33 166.528 109.414C166.052 110.049 165.528 110.578 164.956 111.002C164.396 111.414 163.861 111.679 163.353 111.795C162.623 111.711 162.051 111.446 161.639 111.002C161.236 110.547 161.035 110.002 161.035 109.367C161.035 108.933 161.094 108.493 161.21 108.049C161.337 107.594 161.506 107.16 161.718 106.747C161.94 106.324 162.194 105.927 162.48 105.557C162.776 105.186 163.088 104.863 163.417 104.588C163.755 104.313 164.099 104.096 164.448 103.937C164.808 103.779 165.163 103.699 165.512 103.699C165.999 103.763 166.454 104.064 166.877 104.604ZM165.782 105.128C165.496 105.17 165.2 105.287 164.893 105.477C164.586 105.668 164.295 105.922 164.02 106.239C163.755 106.557 163.512 106.927 163.29 107.35C163.067 107.774 162.893 108.229 162.766 108.716C163.612 108.292 164.316 107.774 164.877 107.16C165.438 106.536 165.74 105.858 165.782 105.128Z" fill="white"/>
<path d="M167.231 110.859C167.284 110.552 167.374 110.15 167.501 109.652C167.639 109.144 167.798 108.61 167.977 108.049C168.157 107.477 168.348 106.906 168.549 106.334C168.75 105.763 168.946 105.25 169.136 104.795C169.274 104.466 169.396 104.212 169.501 104.033C169.607 103.842 169.724 103.683 169.851 103.556C169.999 103.577 170.152 103.614 170.311 103.667C170.47 103.72 170.623 103.784 170.771 103.858C170.92 103.932 171.052 104.011 171.168 104.096C171.285 104.17 171.375 104.244 171.438 104.318C171.152 104.657 170.898 105.043 170.676 105.477C170.465 105.911 170.248 106.467 170.025 107.144C170.597 106.636 171.1 106.149 171.533 105.684C171.978 105.218 172.391 104.699 172.772 104.128C172.835 104.075 172.946 104.048 173.105 104.048C173.253 104.048 173.396 104.075 173.534 104.128C173.671 104.17 173.767 104.234 173.819 104.318C173.629 104.826 173.534 105.329 173.534 105.826C173.534 106.292 173.603 106.641 173.74 106.874C173.73 106.938 173.655 107.059 173.518 107.239C173.391 107.419 173.248 107.589 173.089 107.747C172.803 107.599 172.549 107.398 172.327 107.144C172.105 106.879 171.941 106.594 171.835 106.287C171.338 106.636 170.914 106.98 170.565 107.319C170.216 107.647 169.914 108.017 169.66 108.43C169.417 108.832 169.205 109.298 169.025 109.827C168.856 110.356 168.692 110.986 168.533 111.716C168.438 111.706 168.321 111.668 168.184 111.605C168.057 111.552 167.925 111.483 167.787 111.399C167.66 111.314 167.544 111.224 167.438 111.129C167.332 111.033 167.263 110.944 167.231 110.859Z" fill="white"/>
<path d="M174.031 110.113C174.031 110.017 174.036 109.901 174.047 109.763C174.068 109.615 174.1 109.425 174.142 109.192C174.184 108.949 174.237 108.657 174.301 108.319C174.375 107.98 174.465 107.573 174.571 107.096C174.592 106.991 174.639 106.821 174.714 106.588C174.788 106.356 174.883 106.112 174.999 105.858C175.126 105.594 175.274 105.34 175.444 105.096C175.624 104.853 175.835 104.673 176.079 104.556C176.259 104.599 176.497 104.71 176.793 104.89C177.09 105.059 177.344 105.297 177.555 105.604C177.312 105.879 177.105 106.155 176.936 106.43C176.777 106.705 176.629 106.991 176.492 107.287C176.365 107.583 176.243 107.89 176.126 108.208C176.021 108.525 175.899 108.859 175.761 109.208C175.645 109.504 175.539 109.811 175.444 110.129C175.349 110.436 175.296 110.705 175.285 110.938C175.285 111.129 175.28 111.261 175.269 111.335C175.269 111.42 175.243 111.462 175.19 111.462C175.147 111.462 175.063 111.436 174.936 111.383C174.809 111.33 174.677 111.25 174.539 111.145C174.412 111.028 174.296 110.885 174.19 110.716C174.084 110.547 174.031 110.346 174.031 110.113ZM177.063 103.223C177.063 103.159 177.079 103.064 177.111 102.937C177.058 102.884 177.01 102.805 176.968 102.699C176.936 102.593 176.92 102.498 176.92 102.413C176.92 102.318 176.931 102.191 176.952 102.032C176.984 101.863 177.021 101.683 177.063 101.493C177.105 101.302 177.158 101.106 177.222 100.905C177.285 100.693 177.349 100.503 177.412 100.334C177.539 100.334 177.693 100.371 177.873 100.445C178.063 100.508 178.254 100.598 178.444 100.715C178.635 100.82 178.809 100.942 178.968 101.08C179.127 101.207 179.249 101.328 179.333 101.445C179.217 101.561 179.063 101.725 178.873 101.937C178.682 102.138 178.497 102.355 178.317 102.588C178.137 102.81 177.973 103.022 177.825 103.223C177.677 103.424 177.582 103.567 177.539 103.652C177.412 103.63 177.301 103.577 177.206 103.493C177.111 103.398 177.063 103.308 177.063 103.223Z" fill="white"/>
<path d="M180.339 103.477C180.614 103.562 180.873 103.752 181.116 104.048C181.36 104.334 181.54 104.652 181.656 105.001C181.54 105.287 181.36 105.631 181.116 106.033C180.873 106.435 180.63 106.848 180.386 107.271C180.143 107.684 179.921 108.081 179.719 108.462C179.529 108.832 179.418 109.139 179.386 109.382C179.555 109.203 179.741 108.996 179.942 108.763C180.153 108.52 180.354 108.282 180.545 108.049C180.746 107.806 180.931 107.589 181.101 107.398C181.27 107.197 181.402 107.049 181.497 106.954C181.699 106.742 181.937 106.498 182.212 106.223C182.487 105.938 182.773 105.673 183.069 105.43C183.376 105.176 183.683 104.964 183.99 104.795C184.297 104.615 184.577 104.525 184.831 104.525C185.106 104.525 185.334 104.62 185.514 104.81C185.704 104.99 185.853 105.181 185.958 105.382C185.958 105.403 185.916 105.435 185.831 105.477C185.757 105.509 185.646 105.609 185.498 105.779C185.35 105.969 185.18 106.234 184.99 106.573C184.81 106.901 184.63 107.26 184.45 107.652C184.281 108.033 184.138 108.425 184.022 108.827C183.905 109.229 183.847 109.594 183.847 109.922C183.847 110.187 183.879 110.356 183.942 110.43C184.016 110.504 184.117 110.541 184.244 110.541C184.36 110.541 184.482 110.515 184.609 110.462C184.736 110.409 184.837 110.383 184.911 110.383C184.953 110.404 184.985 110.451 185.006 110.525C185.038 110.589 185.053 110.647 185.053 110.7C184.969 110.774 184.868 110.848 184.752 110.922C184.635 110.996 184.514 111.065 184.387 111.129C184.26 111.192 184.133 111.245 184.006 111.287C183.889 111.33 183.783 111.351 183.688 111.351C183.381 111.351 183.127 111.303 182.926 111.208C182.736 111.123 182.582 111.007 182.466 110.859C182.36 110.711 182.286 110.536 182.244 110.335C182.201 110.123 182.18 109.901 182.18 109.668C182.18 109.541 182.191 109.398 182.212 109.24C182.233 109.081 182.275 108.896 182.339 108.684C182.402 108.462 182.492 108.202 182.609 107.906C182.725 107.599 182.873 107.234 183.053 106.811C183.032 106.811 182.889 106.885 182.625 107.033C182.36 107.181 182.074 107.409 181.767 107.716C181.27 108.192 180.82 108.663 180.418 109.128C180.026 109.594 179.624 110.113 179.211 110.684C178.979 111.012 178.772 111.287 178.592 111.51C178.423 111.743 178.275 111.896 178.148 111.97C177.926 111.843 177.762 111.663 177.656 111.43C177.55 111.208 177.47 110.975 177.418 110.732C177.418 110.531 177.444 110.277 177.497 109.97C177.56 109.663 177.64 109.324 177.735 108.954C177.841 108.573 177.968 108.176 178.116 107.763C178.264 107.35 178.428 106.938 178.608 106.525C179.01 105.594 179.375 104.863 179.704 104.334C180.042 103.805 180.254 103.519 180.339 103.477Z" fill="white"/>
<path d="M186.356 110.113C186.356 110.017 186.361 109.901 186.372 109.763C186.393 109.615 186.425 109.425 186.467 109.192C186.509 108.949 186.562 108.657 186.626 108.319C186.7 107.98 186.79 107.573 186.896 107.096C186.917 106.991 186.964 106.821 187.038 106.588C187.113 106.356 187.208 106.112 187.324 105.858C187.451 105.594 187.599 105.34 187.769 105.096C187.949 104.853 188.16 104.673 188.404 104.556C188.584 104.599 188.822 104.71 189.118 104.89C189.414 105.059 189.668 105.297 189.88 105.604C189.637 105.879 189.43 106.155 189.261 106.43C189.102 106.705 188.954 106.991 188.817 107.287C188.69 107.583 188.568 107.89 188.451 108.208C188.346 108.525 188.224 108.859 188.086 109.208C187.97 109.504 187.864 109.811 187.769 110.129C187.673 110.436 187.621 110.705 187.61 110.938C187.61 111.129 187.605 111.261 187.594 111.335C187.594 111.42 187.568 111.462 187.515 111.462C187.472 111.462 187.388 111.436 187.261 111.383C187.134 111.33 187.001 111.25 186.864 111.145C186.737 111.028 186.62 110.885 186.515 110.716C186.409 110.547 186.356 110.346 186.356 110.113ZM189.388 103.223C189.388 103.159 189.404 103.064 189.436 102.937C189.383 102.884 189.335 102.805 189.293 102.699C189.261 102.593 189.245 102.498 189.245 102.413C189.245 102.318 189.256 102.191 189.277 102.032C189.309 101.863 189.346 101.683 189.388 101.493C189.43 101.302 189.483 101.106 189.547 100.905C189.61 100.693 189.674 100.503 189.737 100.334C189.864 100.334 190.018 100.371 190.198 100.445C190.388 100.508 190.579 100.598 190.769 100.715C190.96 100.82 191.134 100.942 191.293 101.08C191.452 101.207 191.573 101.328 191.658 101.445C191.542 101.561 191.388 101.725 191.198 101.937C191.007 102.138 190.822 102.355 190.642 102.588C190.462 102.81 190.298 103.022 190.15 103.223C190.002 103.424 189.907 103.567 189.864 103.652C189.737 103.63 189.626 103.577 189.531 103.493C189.436 103.398 189.388 103.308 189.388 103.223Z" fill="white"/>
<path d="M189.52 110.954C189.52 110.785 189.668 110.515 189.965 110.144C190.261 109.763 190.653 109.335 191.139 108.859C191.637 108.372 192.203 107.864 192.838 107.335C193.484 106.795 194.15 106.276 194.838 105.779C194.394 105.684 194.039 105.615 193.775 105.572C193.521 105.53 193.314 105.509 193.156 105.509C192.849 105.509 192.574 105.551 192.33 105.636C192.087 105.721 191.849 105.858 191.616 106.049C191.129 105.625 190.885 105.139 190.885 104.588C190.885 104.419 190.891 104.318 190.901 104.287C191.081 104.107 191.293 103.969 191.536 103.874C191.79 103.779 192.055 103.731 192.33 103.731C192.626 103.731 192.928 103.779 193.235 103.874C193.542 103.969 193.844 104.075 194.14 104.191C194.436 104.297 194.711 104.398 194.965 104.493C195.23 104.588 195.463 104.636 195.664 104.636C195.78 104.636 195.907 104.62 196.045 104.588C196.193 104.556 196.315 104.514 196.41 104.461C196.505 104.535 196.59 104.683 196.664 104.906C196.749 105.128 196.791 105.345 196.791 105.557C196.463 105.684 196.066 105.906 195.6 106.223C195.145 106.541 194.68 106.906 194.203 107.319C193.727 107.731 193.261 108.171 192.806 108.636C192.362 109.102 191.991 109.541 191.695 109.954C191.917 110.049 192.219 110.097 192.6 110.097C192.843 110.097 193.092 110.076 193.346 110.033C193.6 109.991 193.844 109.933 194.076 109.859C194.32 109.785 194.542 109.7 194.743 109.605C194.944 109.499 195.114 109.388 195.251 109.271C195.749 109.589 195.997 110.055 195.997 110.668C195.997 110.753 195.992 110.822 195.981 110.875C195.981 110.928 195.976 110.991 195.966 111.065C195.479 111.372 194.95 111.526 194.378 111.526C194.092 111.526 193.806 111.494 193.521 111.43C193.235 111.377 192.955 111.319 192.679 111.256C192.415 111.192 192.161 111.134 191.917 111.081C191.685 111.018 191.468 110.986 191.266 110.986C190.758 110.986 190.346 111.224 190.028 111.7C189.891 111.647 189.774 111.552 189.679 111.414C189.594 111.277 189.541 111.123 189.52 110.954Z" fill="white"/>
<path d="M197.503 110.113C197.503 110.017 197.508 109.901 197.518 109.763C197.54 109.615 197.571 109.425 197.614 109.192C197.656 108.949 197.709 108.657 197.772 108.319C197.847 107.98 197.936 107.573 198.042 107.096C198.063 106.991 198.111 106.821 198.185 106.588C198.259 106.356 198.355 106.112 198.471 105.858C198.598 105.594 198.746 105.34 198.915 105.096C199.095 104.853 199.307 104.673 199.55 104.556C199.73 104.599 199.968 104.71 200.265 104.89C200.561 105.059 200.815 105.297 201.027 105.604C200.783 105.879 200.577 106.155 200.408 106.43C200.249 106.705 200.101 106.991 199.963 107.287C199.836 107.583 199.714 107.89 199.598 108.208C199.492 108.525 199.371 108.859 199.233 109.208C199.117 109.504 199.011 109.811 198.915 110.129C198.82 110.436 198.767 110.705 198.757 110.938C198.757 111.129 198.751 111.261 198.741 111.335C198.741 111.42 198.714 111.462 198.661 111.462C198.619 111.462 198.534 111.436 198.407 111.383C198.28 111.33 198.148 111.25 198.011 111.145C197.884 111.028 197.767 110.885 197.661 110.716C197.555 110.547 197.503 110.346 197.503 110.113ZM200.535 103.223C200.535 103.159 200.551 103.064 200.582 102.937C200.529 102.884 200.482 102.805 200.439 102.699C200.408 102.593 200.392 102.498 200.392 102.413C200.392 102.318 200.402 102.191 200.424 102.032C200.455 101.863 200.492 101.683 200.535 101.493C200.577 101.302 200.63 101.106 200.693 100.905C200.757 100.693 200.82 100.503 200.884 100.334C201.011 100.334 201.164 100.371 201.344 100.445C201.535 100.508 201.725 100.598 201.916 100.715C202.106 100.82 202.281 100.942 202.44 101.08C202.598 101.207 202.72 101.328 202.805 101.445C202.688 101.561 202.535 101.725 202.344 101.937C202.154 102.138 201.969 102.355 201.789 102.588C201.609 102.81 201.445 103.022 201.297 103.223C201.149 103.424 201.053 103.567 201.011 103.652C200.884 103.63 200.773 103.577 200.678 103.493C200.582 103.398 200.535 103.308 200.535 103.223Z" fill="white"/>
<path d="M203.81 103.477C204.085 103.562 204.345 103.752 204.588 104.048C204.831 104.334 205.011 104.652 205.128 105.001C205.011 105.287 204.831 105.631 204.588 106.033C204.345 106.435 204.101 106.848 203.858 107.271C203.614 107.684 203.392 108.081 203.191 108.462C203.001 108.832 202.889 109.139 202.858 109.382C203.027 109.203 203.212 108.996 203.413 108.763C203.625 108.52 203.826 108.282 204.017 108.049C204.218 107.806 204.403 107.589 204.572 107.398C204.742 107.197 204.874 107.049 204.969 106.954C205.17 106.742 205.408 106.498 205.683 106.223C205.959 105.938 206.244 105.673 206.541 105.43C206.848 105.176 207.155 104.964 207.461 104.795C207.768 104.615 208.049 104.525 208.303 104.525C208.578 104.525 208.806 104.62 208.985 104.81C209.176 104.99 209.324 105.181 209.43 105.382C209.43 105.403 209.388 105.435 209.303 105.477C209.229 105.509 209.118 105.609 208.97 105.779C208.821 105.969 208.652 106.234 208.462 106.573C208.282 106.901 208.102 107.26 207.922 107.652C207.752 108.033 207.61 108.425 207.493 108.827C207.377 109.229 207.319 109.594 207.319 109.922C207.319 110.187 207.35 110.356 207.414 110.43C207.488 110.504 207.588 110.541 207.715 110.541C207.832 110.541 207.954 110.515 208.081 110.462C208.208 110.409 208.308 110.383 208.382 110.383C208.425 110.404 208.456 110.451 208.477 110.525C208.509 110.589 208.525 110.647 208.525 110.7C208.44 110.774 208.34 110.848 208.223 110.922C208.107 110.996 207.985 111.065 207.858 111.129C207.731 111.192 207.604 111.245 207.477 111.287C207.361 111.33 207.255 111.351 207.16 111.351C206.853 111.351 206.599 111.303 206.398 111.208C206.207 111.123 206.054 111.007 205.937 110.859C205.832 110.711 205.758 110.536 205.715 110.335C205.673 110.123 205.652 109.901 205.652 109.668C205.652 109.541 205.662 109.398 205.683 109.24C205.705 109.081 205.747 108.896 205.81 108.684C205.874 108.462 205.964 108.202 206.08 107.906C206.197 107.599 206.345 107.234 206.525 106.811C206.504 106.811 206.361 106.885 206.096 107.033C205.832 107.181 205.546 107.409 205.239 107.716C204.742 108.192 204.292 108.663 203.89 109.128C203.498 109.594 203.096 110.113 202.683 110.684C202.45 111.012 202.244 111.287 202.064 111.51C201.895 111.743 201.746 111.896 201.619 111.97C201.397 111.843 201.233 111.663 201.127 111.43C201.021 111.208 200.942 110.975 200.889 110.732C200.889 110.531 200.916 110.277 200.969 109.97C201.032 109.663 201.111 109.324 201.207 108.954C201.312 108.573 201.439 108.176 201.588 107.763C201.736 107.35 201.9 106.938 202.08 106.525C202.482 105.594 202.847 104.863 203.175 104.334C203.514 103.805 203.726 103.519 203.81 103.477Z" fill="white"/>
<path d="M214.372 112.383C213.864 112.235 213.51 112.087 213.309 111.938C213.118 111.79 213.023 111.605 213.023 111.383C213.023 111.213 213.07 110.975 213.166 110.668C213.261 110.361 213.399 110.002 213.578 109.589C213.769 109.165 213.991 108.7 214.245 108.192C214.51 107.684 214.806 107.139 215.134 106.557C214.859 106.546 214.61 106.541 214.388 106.541C214.176 106.53 214.002 106.525 213.864 106.525C213.928 106.366 214.108 106.229 214.404 106.112C214.7 105.996 215.092 105.895 215.579 105.811C215.991 105.123 216.431 104.466 216.896 103.842C217.373 103.218 217.849 102.646 218.325 102.128C218.801 101.598 219.278 101.138 219.754 100.746C220.23 100.344 220.685 100.027 221.119 99.7939C221.13 99.7198 221.135 99.6563 221.135 99.6034C221.146 99.5505 221.151 99.5134 221.151 99.4923C221.299 99.4923 221.495 99.5293 221.738 99.6034C221.992 99.6775 222.236 99.7674 222.469 99.8733C222.712 99.9791 222.924 100.09 223.104 100.207C223.294 100.312 223.4 100.402 223.421 100.477C223.072 101.09 222.728 102.011 222.389 103.239C222.05 104.456 221.77 105.916 221.548 107.62C221.495 108.044 221.447 108.525 221.405 109.065C221.373 109.605 221.357 110.208 221.357 110.875C221.357 111.108 221.357 111.346 221.357 111.589C221.357 111.833 221.368 112.087 221.389 112.351C221.368 112.362 221.347 112.367 221.326 112.367C221.304 112.367 221.262 112.367 221.199 112.367C221.05 112.367 220.876 112.341 220.675 112.288C220.484 112.245 220.294 112.187 220.103 112.113C219.923 112.049 219.764 111.975 219.627 111.891C219.5 111.806 219.42 111.732 219.389 111.668C219.378 111.531 219.373 111.393 219.373 111.256C219.373 111.129 219.373 110.991 219.373 110.843C219.373 110.187 219.394 109.52 219.436 108.843C219.489 108.165 219.574 107.467 219.69 106.747C219.542 106.737 219.346 106.726 219.103 106.715C218.86 106.694 218.584 106.678 218.277 106.668C217.981 106.657 217.658 106.647 217.309 106.636C216.97 106.615 216.637 106.599 216.309 106.588C216.055 107.065 215.817 107.541 215.595 108.017C215.372 108.483 215.182 108.954 215.023 109.43C214.843 109.938 214.695 110.446 214.579 110.954C214.473 111.462 214.404 111.938 214.372 112.383ZM220.5 102.842C220.542 102.694 220.59 102.493 220.643 102.239C220.706 101.974 220.765 101.699 220.818 101.413C220.553 101.508 220.257 101.683 219.928 101.937C219.611 102.191 219.278 102.509 218.928 102.89C218.59 103.26 218.24 103.683 217.881 104.16C217.531 104.625 217.193 105.123 216.865 105.652C217.754 105.578 218.764 105.53 219.897 105.509C219.981 105.064 220.071 104.625 220.167 104.191C220.272 103.747 220.384 103.297 220.5 102.842Z" fill="white"/>
<path d="M225.918 103.477C226.193 103.562 226.452 103.752 226.695 104.048C226.939 104.334 227.119 104.652 227.235 105.001C227.119 105.287 226.939 105.631 226.695 106.033C226.452 106.435 226.209 106.848 225.965 107.271C225.722 107.684 225.499 108.081 225.298 108.462C225.108 108.832 224.997 109.139 224.965 109.382C225.134 109.203 225.32 108.996 225.521 108.763C225.732 108.52 225.933 108.282 226.124 108.049C226.325 107.806 226.51 107.589 226.68 107.398C226.849 107.197 226.981 107.049 227.076 106.954C227.277 106.742 227.516 106.498 227.791 106.223C228.066 105.938 228.352 105.673 228.648 105.43C228.955 105.176 229.262 104.964 229.569 104.795C229.876 104.615 230.156 104.525 230.41 104.525C230.685 104.525 230.913 104.62 231.093 104.81C231.283 104.99 231.431 105.181 231.537 105.382C231.537 105.403 231.495 105.435 231.41 105.477C231.336 105.509 231.225 105.609 231.077 105.779C230.929 105.969 230.759 106.234 230.569 106.573C230.389 106.901 230.209 107.26 230.029 107.652C229.86 108.033 229.717 108.425 229.601 108.827C229.484 109.229 229.426 109.594 229.426 109.922C229.426 110.187 229.458 110.356 229.521 110.43C229.595 110.504 229.696 110.541 229.823 110.541C229.939 110.541 230.061 110.515 230.188 110.462C230.315 110.409 230.415 110.383 230.49 110.383C230.532 110.404 230.564 110.451 230.585 110.525C230.617 110.589 230.632 110.647 230.632 110.7C230.548 110.774 230.447 110.848 230.331 110.922C230.214 110.996 230.093 111.065 229.966 111.129C229.839 111.192 229.712 111.245 229.585 111.287C229.468 111.33 229.362 111.351 229.267 111.351C228.96 111.351 228.706 111.303 228.505 111.208C228.315 111.123 228.161 111.007 228.045 110.859C227.939 110.711 227.865 110.536 227.823 110.335C227.78 110.123 227.759 109.901 227.759 109.668C227.759 109.541 227.77 109.398 227.791 109.24C227.812 109.081 227.854 108.896 227.918 108.684C227.981 108.462 228.071 108.202 228.188 107.906C228.304 107.599 228.452 107.234 228.632 106.811C228.611 106.811 228.468 106.885 228.204 107.033C227.939 107.181 227.653 107.409 227.346 107.716C226.849 108.192 226.399 108.663 225.997 109.128C225.605 109.594 225.203 110.113 224.79 110.684C224.558 111.012 224.351 111.287 224.171 111.51C224.002 111.743 223.854 111.896 223.727 111.97C223.504 111.843 223.34 111.663 223.235 111.43C223.129 111.208 223.049 110.975 222.996 110.732C222.996 110.531 223.023 110.277 223.076 109.97C223.139 109.663 223.219 109.324 223.314 108.954C223.42 108.573 223.547 108.176 223.695 107.763C223.843 107.35 224.007 106.938 224.187 106.525C224.589 105.594 224.954 104.863 225.283 104.334C225.621 103.805 225.833 103.519 225.918 103.477Z" fill="white"/>
<path d="M237.396 104.763C237.502 104.763 237.623 104.784 237.761 104.826C237.909 104.858 238.041 104.906 238.158 104.969C238.274 105.022 238.37 105.08 238.444 105.144C238.528 105.207 238.571 105.266 238.571 105.318C238.359 105.763 238.163 106.213 237.983 106.668C237.803 107.112 237.65 107.541 237.523 107.954C237.396 108.366 237.295 108.753 237.221 109.113C237.158 109.472 237.126 109.785 237.126 110.049C237.126 110.346 237.158 110.594 237.221 110.795C237.285 110.986 237.391 111.123 237.539 111.208C237.412 111.293 237.248 111.362 237.047 111.414C236.846 111.467 236.666 111.494 236.507 111.494C235.935 111.494 235.65 111.102 235.65 110.319C235.65 109.716 235.851 108.89 236.253 107.843C236.041 108.329 235.798 108.79 235.523 109.224C235.247 109.647 234.967 110.023 234.681 110.351C234.395 110.679 234.104 110.949 233.808 111.16C233.522 111.362 233.258 111.483 233.014 111.526C232.623 111.504 232.305 111.319 232.062 110.97C231.818 110.61 231.697 110.155 231.697 109.605C231.697 109.012 231.824 108.388 232.078 107.731C232.332 107.075 232.654 106.467 233.046 105.906C233.448 105.345 233.882 104.879 234.348 104.509C234.813 104.128 235.263 103.927 235.697 103.906C235.803 103.937 235.919 104.001 236.046 104.096C236.184 104.191 236.311 104.302 236.427 104.429C236.554 104.556 236.66 104.689 236.745 104.826C236.83 104.953 236.877 105.064 236.888 105.16C236.464 105.223 236.025 105.43 235.57 105.779C235.126 106.128 234.718 106.551 234.348 107.049C233.988 107.536 233.692 108.06 233.459 108.62C233.226 109.181 233.11 109.705 233.11 110.192C233.11 110.393 233.184 110.52 233.332 110.573C233.639 110.51 233.993 110.25 234.395 109.795C234.798 109.33 235.284 108.615 235.856 107.652C235.962 107.462 236.078 107.25 236.205 107.017C236.343 106.784 236.48 106.541 236.618 106.287C236.756 106.033 236.888 105.779 237.015 105.525C237.152 105.26 237.279 105.006 237.396 104.763Z" fill="white"/>
<path d="M239.36 110.906C239.36 110.536 239.397 110.102 239.471 109.605C239.545 109.097 239.651 108.557 239.789 107.985C239.937 107.414 240.106 106.816 240.297 106.192C240.498 105.567 240.72 104.943 240.963 104.318C241.175 103.757 241.418 103.191 241.694 102.62C241.979 102.048 242.286 101.487 242.614 100.937C242.942 100.387 243.281 99.8627 243.63 99.3653C243.99 98.8678 244.35 98.4128 244.71 98C244.879 98 245.059 98.0212 245.25 98.0635C245.451 98.1058 245.641 98.164 245.821 98.2381C246.012 98.3016 246.181 98.381 246.329 98.4763C246.488 98.5715 246.615 98.6668 246.71 98.762C245.916 99.5769 245.202 100.402 244.567 101.239C243.932 102.064 243.429 102.842 243.059 103.572C242.858 103.974 242.673 104.35 242.503 104.699C242.345 105.049 242.196 105.398 242.059 105.747C241.921 106.086 241.794 106.43 241.678 106.779C241.572 107.118 241.471 107.477 241.376 107.858C243.408 105.266 244.916 103.969 245.901 103.969C246.176 103.969 246.472 104.059 246.79 104.239C247.107 104.419 247.388 104.662 247.631 104.969C247.303 105.329 246.964 105.763 246.615 106.271C246.266 106.779 245.943 107.292 245.647 107.811C245.361 108.319 245.123 108.795 244.932 109.24C244.752 109.674 244.662 109.996 244.662 110.208C244.662 110.314 244.678 110.388 244.71 110.43C244.742 110.462 244.81 110.478 244.916 110.478C245.075 110.478 245.202 110.457 245.297 110.414C245.393 110.372 245.451 110.351 245.472 110.351C245.525 110.436 245.557 110.494 245.567 110.525C245.578 110.557 245.583 110.584 245.583 110.605C245.583 110.647 245.52 110.711 245.393 110.795C245.266 110.869 245.112 110.949 244.932 111.033C244.763 111.108 244.594 111.176 244.424 111.24C244.255 111.303 244.128 111.335 244.043 111.335C243.937 111.335 243.832 111.303 243.726 111.24C243.62 111.187 243.525 111.113 243.44 111.018C243.366 110.922 243.302 110.817 243.249 110.7C243.207 110.584 243.186 110.462 243.186 110.335C243.186 110.176 243.228 109.943 243.313 109.636C243.408 109.319 243.535 108.954 243.694 108.541C243.853 108.118 244.043 107.657 244.265 107.16C244.488 106.663 244.726 106.155 244.98 105.636C244.98 105.594 244.959 105.572 244.916 105.572C244.885 105.572 244.8 105.615 244.662 105.699C244.535 105.784 244.414 105.869 244.297 105.953C243.916 106.239 243.53 106.594 243.138 107.017C242.757 107.43 242.382 107.885 242.011 108.382C241.651 108.88 241.307 109.409 240.979 109.97C240.662 110.52 240.387 111.076 240.154 111.637C240.122 111.711 240.074 111.78 240.011 111.843C239.947 111.907 239.894 111.938 239.852 111.938C239.82 111.938 239.773 111.901 239.709 111.827C239.656 111.753 239.603 111.658 239.551 111.541C239.508 111.436 239.466 111.325 239.424 111.208C239.381 111.092 239.36 110.991 239.36 110.906Z" fill="white"/>
<path d="M248.514 105.096C248.461 105.033 248.413 104.9 248.371 104.699C248.328 104.488 248.307 104.308 248.307 104.16C248.582 104.181 248.847 104.202 249.101 104.223C249.355 104.234 249.588 104.244 249.8 104.255C249.958 103.937 250.128 103.625 250.308 103.318C250.498 103.001 250.678 102.715 250.847 102.461C251.027 102.196 251.191 101.974 251.339 101.794C251.498 101.614 251.62 101.498 251.705 101.445C251.81 101.445 251.943 101.466 252.101 101.508C252.271 101.54 252.44 101.588 252.609 101.651C252.779 101.704 252.932 101.762 253.07 101.826C253.207 101.889 253.303 101.953 253.356 102.016C253.038 102.419 252.763 102.794 252.53 103.144C252.308 103.482 252.064 103.874 251.8 104.318C252.011 104.318 252.223 104.313 252.435 104.302C252.657 104.292 252.879 104.276 253.102 104.255C253.154 104.308 253.197 104.377 253.229 104.461C253.26 104.535 253.276 104.615 253.276 104.699C252.758 104.89 252.128 104.996 251.387 105.017C251.122 105.525 250.884 106.033 250.673 106.541C250.472 107.038 250.297 107.52 250.149 107.985C250.011 108.451 249.9 108.89 249.815 109.303C249.741 109.716 249.704 110.086 249.704 110.414C249.704 110.88 249.879 111.139 250.228 111.192C250.546 111.15 250.847 111.071 251.133 110.954C251.419 110.838 251.673 110.69 251.895 110.51C251.959 110.605 251.996 110.684 252.006 110.748C251.943 110.843 251.832 110.954 251.673 111.081C251.525 111.208 251.361 111.33 251.181 111.446C251.001 111.573 250.826 111.679 250.657 111.764C250.487 111.848 250.36 111.896 250.276 111.907C250.011 111.896 249.747 111.838 249.482 111.732C249.217 111.626 248.974 111.494 248.752 111.335C248.54 111.176 248.365 111.002 248.228 110.811C248.09 110.61 248.021 110.414 248.021 110.224C248.021 109.97 248.053 109.652 248.117 109.271C248.191 108.88 248.291 108.456 248.418 108.001C248.545 107.546 248.694 107.07 248.863 106.573C249.032 106.075 249.217 105.583 249.419 105.096H248.514Z" fill="white"/>
<path d="M258.635 104.763C258.741 104.763 258.863 104.784 259 104.826C259.148 104.858 259.281 104.906 259.397 104.969C259.513 105.022 259.609 105.08 259.683 105.144C259.767 105.207 259.81 105.266 259.81 105.318C259.598 105.763 259.402 106.213 259.222 106.668C259.042 107.112 258.889 107.541 258.762 107.954C258.635 108.366 258.534 108.753 258.46 109.113C258.397 109.472 258.365 109.785 258.365 110.049C258.365 110.346 258.397 110.594 258.46 110.795C258.524 110.986 258.63 111.123 258.778 111.208C258.651 111.293 258.487 111.362 258.286 111.414C258.085 111.467 257.905 111.494 257.746 111.494C257.174 111.494 256.889 111.102 256.889 110.319C256.889 109.716 257.09 108.89 257.492 107.843C257.28 108.329 257.037 108.79 256.762 109.224C256.487 109.647 256.206 110.023 255.92 110.351C255.635 110.679 255.344 110.949 255.047 111.16C254.761 111.362 254.497 111.483 254.253 111.526C253.862 111.504 253.544 111.319 253.301 110.97C253.058 110.61 252.936 110.155 252.936 109.605C252.936 109.012 253.063 108.388 253.317 107.731C253.571 107.075 253.894 106.467 254.285 105.906C254.687 105.345 255.121 104.879 255.587 104.509C256.053 104.128 256.502 103.927 256.936 103.906C257.042 103.937 257.159 104.001 257.286 104.096C257.423 104.191 257.55 104.302 257.667 104.429C257.794 104.556 257.899 104.689 257.984 104.826C258.069 104.953 258.116 105.064 258.127 105.16C257.704 105.223 257.264 105.43 256.809 105.779C256.365 106.128 255.957 106.551 255.587 107.049C255.227 107.536 254.931 108.06 254.698 108.62C254.465 109.181 254.349 109.705 254.349 110.192C254.349 110.393 254.423 110.52 254.571 110.573C254.878 110.51 255.232 110.25 255.635 109.795C256.037 109.33 256.524 108.615 257.095 107.652C257.201 107.462 257.317 107.25 257.444 107.017C257.582 106.784 257.72 106.541 257.857 106.287C257.995 106.033 258.127 105.779 258.254 105.525C258.392 105.26 258.519 105.006 258.635 104.763Z" fill="white"/>
<path d="M260.234 110.859C260.287 110.552 260.377 110.15 260.504 109.652C260.642 109.144 260.8 108.61 260.98 108.049C261.16 107.477 261.351 106.906 261.552 106.334C261.753 105.763 261.949 105.25 262.139 104.795C262.277 104.466 262.398 104.212 262.504 104.033C262.61 103.842 262.726 103.683 262.853 103.556C263.002 103.577 263.155 103.614 263.314 103.667C263.473 103.72 263.626 103.784 263.774 103.858C263.922 103.932 264.055 104.011 264.171 104.096C264.288 104.17 264.377 104.244 264.441 104.318C264.155 104.657 263.901 105.043 263.679 105.477C263.467 105.911 263.25 106.467 263.028 107.144C263.6 106.636 264.102 106.149 264.536 105.684C264.981 105.218 265.393 104.699 265.774 104.128C265.838 104.075 265.949 104.048 266.108 104.048C266.256 104.048 266.399 104.075 266.536 104.128C266.674 104.17 266.769 104.234 266.822 104.318C266.632 104.826 266.536 105.329 266.536 105.826C266.536 106.292 266.605 106.641 266.743 106.874C266.732 106.938 266.658 107.059 266.521 107.239C266.394 107.419 266.251 107.589 266.092 107.747C265.806 107.599 265.552 107.398 265.33 107.144C265.108 106.879 264.944 106.594 264.838 106.287C264.34 106.636 263.917 106.98 263.568 107.319C263.219 107.647 262.917 108.017 262.663 108.43C262.42 108.832 262.208 109.298 262.028 109.827C261.859 110.356 261.695 110.986 261.536 111.716C261.441 111.706 261.324 111.668 261.187 111.605C261.06 111.552 260.927 111.483 260.79 111.399C260.663 111.314 260.546 111.224 260.44 111.129C260.335 111.033 260.266 110.944 260.234 110.859Z" fill="white"/>
<path d="M267.018 110.287C267.018 110.192 267.023 110.07 267.034 109.922C267.055 109.774 267.087 109.584 267.129 109.351C267.171 109.118 267.224 108.837 267.288 108.509C267.362 108.171 267.446 107.768 267.542 107.303C267.563 107.208 267.605 107.044 267.669 106.811C267.732 106.578 267.817 106.329 267.923 106.065C268.039 105.789 268.182 105.535 268.351 105.303C268.521 105.059 268.727 104.879 268.97 104.763C269.15 104.784 269.388 104.885 269.685 105.064C269.992 105.234 270.251 105.472 270.463 105.779C269.997 106.329 269.643 106.895 269.399 107.477C269.166 108.06 268.944 108.695 268.732 109.382C268.616 109.753 268.51 110.07 268.415 110.335C268.33 110.6 268.288 110.859 268.288 111.113C268.288 111.303 268.283 111.441 268.272 111.526C268.272 111.61 268.245 111.653 268.193 111.653C268.161 111.653 268.081 111.626 267.954 111.573C267.827 111.52 267.695 111.436 267.558 111.319C267.42 111.213 267.293 111.076 267.177 110.906C267.071 110.737 267.018 110.531 267.018 110.287Z" fill="white"/>
<path d="M271.261 111.78C271.091 111.758 270.911 111.684 270.721 111.557C270.541 111.441 270.424 111.309 270.372 111.16C270.372 111.033 270.387 110.869 270.419 110.668C270.462 110.467 270.509 110.266 270.562 110.065C270.615 109.853 270.668 109.658 270.721 109.478C270.774 109.287 270.811 109.144 270.832 109.049C270.959 109.049 271.118 109.081 271.308 109.144C271.509 109.208 271.71 109.298 271.911 109.414C272.123 109.52 272.319 109.647 272.499 109.795C272.689 109.933 272.832 110.076 272.927 110.224C272.832 110.436 272.71 110.637 272.562 110.827C272.414 111.018 272.255 111.182 272.086 111.319C271.927 111.467 271.774 111.579 271.626 111.653C271.478 111.737 271.356 111.78 271.261 111.78Z" fill="white"/>
<path d="M275.09 111.78C274.92 111.758 274.741 111.684 274.55 111.557C274.37 111.441 274.254 111.309 274.201 111.16C274.201 111.033 274.217 110.869 274.248 110.668C274.291 110.467 274.338 110.266 274.391 110.065C274.444 109.853 274.497 109.658 274.55 109.478C274.603 109.287 274.64 109.144 274.661 109.049C274.788 109.049 274.947 109.081 275.137 109.144C275.339 109.208 275.54 109.298 275.741 109.414C275.952 109.52 276.148 109.647 276.328 109.795C276.519 109.933 276.661 110.076 276.757 110.224C276.661 110.436 276.54 110.637 276.392 110.827C276.243 111.018 276.085 111.182 275.915 111.319C275.757 111.467 275.603 111.579 275.455 111.653C275.307 111.737 275.185 111.78 275.09 111.78Z" fill="white"/>
<path d="M278.919 111.78C278.75 111.758 278.57 111.684 278.379 111.557C278.199 111.441 278.083 111.309 278.03 111.16C278.03 111.033 278.046 110.869 278.078 110.668C278.12 110.467 278.168 110.266 278.221 110.065C278.273 109.853 278.326 109.658 278.379 109.478C278.432 109.287 278.469 109.144 278.49 109.049C278.617 109.049 278.776 109.081 278.967 109.144C279.168 109.208 279.369 109.298 279.57 109.414C279.782 109.52 279.977 109.647 280.157 109.795C280.348 109.933 280.491 110.076 280.586 110.224C280.491 110.436 280.369 110.637 280.221 110.827C280.073 111.018 279.914 111.182 279.745 111.319C279.586 111.467 279.432 111.579 279.284 111.653C279.136 111.737 279.014 111.78 278.919 111.78Z" fill="white"/>
<path d="M164.24 77.7128C166.145 77.296 170.159 77.7181 173.078 77.5912C174.476 77.5305 175.871 77.3298 177.27 77.5521C180.76 78.1065 181.537 79.5098 182.818 79.638C183.279 77.2602 184.029 77.5845 184.926 77.6035C185.951 77.6481 186.392 78.9162 186.185 79.7811C185.128 80.4488 185.888 79.3593 185.035 78.4607C183.156 78.3637 183.715 80.0417 184.043 80.3751C185.343 81.6978 188.855 82.6307 189.571 80.1382C189.162 80.1828 188.748 80.3628 188.336 80.2705C185.434 78.2776 191.184 75.476 191.119 80.6291C191.111 81.2579 195.81 75.3871 199.49 78.1245C200.825 79.1169 200.908 76.7104 204.18 77.6589C206.716 78.394 207.867 80.1919 208.989 80.4613C209.114 79.4024 209.036 78.2775 210.482 77.7589C212.8 77.2883 213.8 81.0081 210.473 79.9996C210.371 81.7204 213.017 82.6054 215.036 81.2939C215.493 80.9953 216.076 80.7645 216.279 80.212C216.571 79.6025 216.367 78.6684 215.668 78.4529C215.131 78.3944 215.084 79.1085 214.754 79.3932C214.504 79.4055 214.147 79.4286 214.034 79.1454C214.006 78.0164 215.299 77.304 216.29 77.7197C217.631 78.2825 217.046 79.4535 217.438 79.9518C217.527 80.065 219.993 78.7621 220.271 78.6527C225.559 76.5692 234.685 77.6388 240.072 79.5794C241.05 80.0257 242.132 80.2811 243.212 80.2489C243.879 80.3025 243.321 78.9375 242.176 79.0454C241.741 79.0808 241.313 79.167 240.881 79.207C240.916 79.0192 240.964 78.8346 241.023 78.6529C241.681 78.2636 242.517 78.4083 243.221 78.5898C243.927 78.7914 244.166 79.5209 244.518 80.078C246.4 80.4724 246.08 78.4448 247.797 79.416C249.672 80.477 270.798 79.7739 270.952 79.8277C271.422 79.9919 271.108 80.5637 271.088 80.9059C271.097 80.7503 252.819 80.7004 250.312 80.7367C248.359 80.7649 248.326 81.1266 247.581 81.5825C246.29 82.3733 245.232 79.9737 244.207 81.0922C242.414 83.0496 238.935 82.4715 236.587 81.2108C235.656 80.7108 234.649 80.171 233.564 80.1304C233.616 81.0646 234.032 82.1075 233.087 82.7651C231.577 83.8157 230.252 81.7444 231.481 80.4244C231.701 80.1877 232.117 80.0779 232.108 79.701C230.159 77.5565 226.597 79.0558 225.983 80.015C229.041 79.7619 229.326 83.4576 226.4 83.0772C225.542 82.9656 225.647 82.2095 226.315 82.2883C226.519 82.3123 226.719 82.3955 226.923 82.3764C227.395 82.3324 227.652 81.713 227.451 81.2843C226.455 79.1648 222.542 83.0502 215.35 83.5057C212.732 83.6715 213.076 83.4342 211.385 82.8821C208.374 81.9685 204.647 76.7223 201.486 78.5115C201.27 78.6423 201.269 78.9208 201.193 79.1347C201.256 78.9567 203.149 80.4446 203.292 80.6207C203.868 81.3304 204.393 81.9413 205.416 81.8768C204.732 79.9529 206.069 79.8084 206.593 80.0576C208.287 80.8637 207.083 84.9461 202.15 82.4373C200.37 83.0835 201.063 83.757 198.458 82.4004C193.873 85.1128 192.47 81.257 193.931 80.2158C194.467 79.834 195.55 79.9816 195.511 81.0678C195.504 81.2449 195.309 81.6202 195.353 81.7674C195.452 82.1002 196.398 82.3206 197.471 80.566C197.962 79.7643 198.415 79.3717 199.364 79.2608C199.33 78.9862 199.468 78.6866 197.917 78.3386C195.982 77.9043 194.545 78.9891 193.271 79.998C188.372 84.3248 185.918 84.1782 179.396 82.125C177.844 81.6363 176.344 80.9252 174.741 80.6197C173.149 80.3837 172.507 81.7331 172.788 82.1469C173.23 82.7972 174.393 81.5535 174.599 82.2975C174.757 82.8714 173.4 83.7806 172.291 82.9722C171.459 82.3656 171.486 81.1886 172.485 80.5444C173.373 79.9715 174.353 80.2023 174.281 79.7563C174.26 79.6278 174.12 79.5599 173.999 79.5127C172.697 79.0078 170.845 77.9582 168.665 80.0273C168.602 80.3689 168.912 80.6198 169.031 80.9137C169.885 82.6818 168.158 83.6486 167.305 83.119C166.425 82.4219 166.421 81.0276 167.175 80.2335C165.172 79.7731 164.971 80.5744 161.864 81.6961C156.495 83.6343 156.038 81.2448 155.681 80.8306C154.882 80.7568 154.053 81.0261 153.457 81.5647C153.185 81.774 152.885 82.1372 152.5 81.9664C152.186 81.6463 151.999 81.1323 151.493 81.0753C149.57 80.8591 129.145 81.1563 128.865 80.8714C126.984 78.9514 150.066 80.419 151.768 79.8842C152.392 79.688 152.459 78.2609 153.567 79.3202C154.048 79.7808 154.629 79.8562 155.244 80.0612C155.31 80.0832 156.062 79.1167 156.174 79.003C157.944 77.2068 158.743 78.5962 158.066 79.0611C157.891 79.1814 157.673 79.2164 157.467 79.2683C157.02 79.3806 156.977 79.5454 156.887 79.9474C159.221 79.8594 160.329 78.4964 164.24 77.7128ZM159.75 80.0135C158.842 80.3552 157.852 80.3982 156.955 80.7661C156.865 81.1709 157.424 81.2047 157.687 81.3417C159.312 81.7326 160.878 80.9031 162.321 80.2613C163.415 79.8535 164.534 79.4672 165.695 79.3148C166.414 79.3225 167.114 79.5965 167.84 79.5442C168.305 79.3241 168.736 79.0394 169.2 78.8193C169.202 78.6485 169.203 78.4777 169.203 78.3068C168.097 78.2807 166.989 78.3084 165.885 78.3299C163.778 78.6254 161.74 79.2794 159.75 80.0135ZM173.842 78.3068C173.862 78.393 173.902 78.5669 173.921 78.6531C174.531 78.7547 175.127 78.9301 175.696 79.1733C178.055 80.052 180.235 81.3648 182.658 82.0727C184.057 82.5852 185.551 82.876 187.04 82.6467C187.5 82.5421 188.102 82.5867 188.376 82.1235C187.783 82.0973 187.205 82.245 186.618 82.2743C185.303 82.1296 184.186 81.371 183.043 80.7738C182.201 80.4107 181.46 79.8551 180.609 79.5134C178.519 78.5161 176.151 78.036 173.842 78.3068ZM220.481 79.361C219.242 79.8027 218.101 80.4614 216.939 81.0647C216.135 81.6048 215.256 82.0173 214.334 82.3143C214.331 82.3759 214.325 82.5006 214.322 82.5621C214.908 82.7838 215.553 82.7345 216.155 82.6068C217.392 82.3051 218.65 82.025 219.79 81.4341C221.92 80.5692 223.974 79.5242 226.12 78.7009C226.126 78.5993 226.138 78.3961 226.145 78.2945C224.204 78.153 222.238 78.5315 220.481 79.361ZM232.136 78.3161C232.159 79.0733 232.997 79.5395 233.693 79.4795C236.008 79.5749 238.058 80.7538 240.229 81.4171C241.175 81.7233 242.264 81.708 243.123 81.1601C243.021 81.0062 242.963 80.76 242.74 80.7538C241.967 80.5999 241.169 80.5661 240.418 80.3183C238.912 79.7873 237.419 79.2025 235.848 78.8809C234.644 78.5084 233.382 78.4392 232.136 78.3161ZM246.446 80.6722C246.737 80.7276 247.103 80.9646 247.36 80.6968C247.705 80.4968 247.345 80.0212 247.065 79.9904C246.685 79.9581 246.541 80.3844 246.446 80.6722ZM152.837 80.1843C152.791 80.2197 152.697 80.2875 152.651 80.3213C152.391 81.0123 153.624 81.0585 153.657 80.4491C153.447 80.2367 153.142 80.0505 152.837 80.1843ZM231.902 80.9492C231.854 81.2678 231.897 81.5894 231.926 81.908C232.116 81.8895 232.333 81.9603 232.507 81.8557C232.899 81.5264 232.722 80.96 232.75 80.5168C232.405 80.5014 232.079 80.6476 231.902 80.9492ZM167.614 80.7753C167.563 81.2139 167.632 81.651 167.74 82.0758C167.914 82.0681 168.088 82.0604 168.263 82.0512C168.309 81.5648 168.312 80.6814 167.614 80.7753Z" fill="white"/>
<path d="M189.741 79.7915C189.78 79.8305 189.78 79.8305 189.741 79.7915Z" fill="white"/>
</svg>
